<svg xmlns="http://www.w3.org/2000/svg" viewBox="0 0 896 815">
  <style>
    .shape { fill: #1a1a1a; }
    @media (prefers-color-scheme: dark) { .shape { fill: #ffffff; } }
  </style>
  <path class="shape" d="M 713.0,812.5 L 708.0,811.5 L 702.0,811.5 L 696.0,811.5 L 690.0,811.5 L 685.0,810.5 L 679.0,810.5 L 673.0,810.5 L 668.0,811.5 L 662.0,811.5 L 656.0,811.5 L 650.0,811.5 L 644.0,811.5 L 639.0,812.5 L 638.5,807.0 L 636.5,804.0 L 635.0,804.5 L 635.5,800.0 L 634.5,795.0 L 632.5,791.0 L 630.5,791.0 L 629.5,788.0 L 627.5,784.0 L 626.5,779.0 L 624.5,775.0 L 623.5,770.0 L 621.5,766.0 L 620.0,761.5 L 618.5,757.0 L 617.0,752.5 L 615.5,748.0 L 613.5,744.0 L 612.5,739.0 L 610.5,735.0 L 609.5,730.0 L 607.5,726.0 L 606.5,721.0 L 604.5,717.0 L 603.0,712.5 L 601.5,708.0 L 600.0,703.5 L 598.5,699.0 L 597.0,694.5 L 595.5,690.0 L 593.5,686.0 L 592.5,681.0 L 590.5,677.0 L 589.5,672.0 L 587.5,668.0 L 586.5,663.0 L 584.5,659.0 L 583.0,654.5 L 581.5,650.0 L 580.0,645.5 L 578.5,641.0 L 576.5,637.0 L 575.5,632.0 L 573.5,628.0 L 572.5,623.0 L 570.5,619.0 L 569.0,614.5 L 567.5,610.0 L 566.0,605.5 L 564.5,601.0 L 563.0,596.5 L 561.5,592.0 L 560.0,587.5 L 558.5,583.0 L 556.5,579.0 L 555.5,574.0 L 553.5,570.0 L 552.5,565.0 L 550.5,561.0 L 549.0,556.5 L 547.5,552.0 L 547.5,548.0 L 550.5,545.0 L 553.5,542.0 L 556.5,539.0 L 559.5,536.0 L 562.5,533.0 L 565.5,530.0 L 568.5,527.0 L 571.5,524.0 L 574.5,521.0 L 577.5,518.0 L 580.5,515.0 L 583.5,512.0 L 588.0,510.5 L 594.0,510.5 L 600.0,510.5 L 606.0,510.5 L 612.0,510.5 L 618.0,510.5 L 624.0,510.5 L 630.0,510.5 L 636.0,510.5 L 642.0,510.5 L 641.0,506.5 L 639.5,502.0 L 637.5,498.0 L 636.5,493.0 L 634.5,489.0 L 632.5,485.0 L 631.0,480.5 L 629.5,476.0 L 627.5,472.0 L 626.5,467.0 L 624.5,463.0 L 623.0,458.5 L 621.5,454.0 L 619.5,450.0 L 618.0,445.5 L 616.5,441.0 L 614.5,437.0 L 613.0,432.5 L 611.5,428.0 L 609.5,424.0 L 607.5,420.0 L 606.5,415.0 L 604.5,411.0 L 603.0,406.5 L 601.5,402.0 L 599.5,398.0 L 597.5,394.0 L 596.5,389.0 L 594.5,385.0 L 592.5,381.0 L 591.0,376.5 L 589.5,372.0 L 587.5,368.0 L 586.5,363.0 L 584.5,359.0 L 582.5,355.0 L 581.0,350.5 L 579.5,346.0 L 577.5,342.0 L 576.0,337.5 L 574.5,333.0 L 572.5,329.0 L 571.0,324.5 L 569.5,320.0 L 567.5,316.0 L 566.0,311.5 L 564.5,307.0 L 562.5,303.0 L 560.5,299.0 L 559.0,294.5 L 557.5,290.0 L 555.5,286.0 L 554.5,281.0 L 552.5,277.0 L 550.5,273.0 L 549.0,268.5 L 547.5,264.0 L 545.5,260.0 L 544.0,255.5 L 542.5,251.0 L 540.5,247.0 L 539.0,242.5 L 537.5,238.0 L 535.5,234.0 L 534.0,229.5 L 532.5,225.0 L 530.5,221.0 L 528.5,217.0 L 527.0,212.5 L 525.5,208.0 L 523.5,204.0 L 522.0,199.5 L 520.5,195.0 L 518.5,191.0 L 517.0,186.5 L 515.5,182.0 L 513.5,178.0 L 512.0,173.5 L 510.5,169.0 L 508.5,165.0 L 507.0,160.5 L 505.5,156.0 L 503.5,152.0 L 501.5,148.0 L 500.5,143.0 L 498.5,139.0 L 496.5,135.0 L 495.0,130.5 L 493.5,126.0 L 491.5,122.0 L 490.0,117.5 L 488.5,113.0 L 486.5,109.0 L 485.0,104.5 L 483.5,100.0 L 481.5,96.0 L 479.5,92.0 L 479.0,87.5 L 483.0,85.5 L 486.5,83.0 L 490.0,80.5 L 494.0,78.5 L 498.0,76.5 L 501.5,74.0 L 505.0,71.5 L 509.0,69.5 L 513.0,67.5 L 516.5,65.0 L 520.0,62.5 L 524.0,60.5 L 528.0,58.5 L 531.5,56.0 L 535.0,53.5 L 539.0,51.5 L 542.5,49.0 L 546.5,47.0 L 550.0,44.5 L 554.0,42.5 L 558.0,40.5 L 561.5,38.0 L 565.0,35.5 L 569.0,33.5 L 573.0,31.5 L 576.5,29.0 L 580.0,26.5 L 584.0,24.5 L 588.0,22.5 L 591.5,20.0 L 595.0,17.5 L 599.0,15.5 L 603.0,13.5 L 607.0,11.5 L 609.0,15.5 L 611.0,19.5 L 612.5,24.0 L 614.5,28.0 L 616.0,32.5 L 618.0,36.5 L 619.5,41.0 L 621.5,45.0 L 623.0,49.5 L 624.5,54.0 L 626.5,58.0 L 628.0,62.5 L 629.5,67.0 L 631.5,71.0 L 633.0,75.5 L 634.5,80.0 L 636.5,84.0 L 638.0,88.5 L 639.5,93.0 L 641.5,97.0 L 643.5,101.0 L 645.0,105.5 L 646.5,110.0 L 648.5,114.0 L 650.0,118.5 L 651.5,123.0 L 653.5,127.0 L 655.0,131.5 L 656.5,136.0 L 658.5,140.0 L 660.0,144.5 L 661.5,149.0 L 663.5,153.0 L 665.5,157.0 L 667.0,161.5 L 668.5,166.0 L 670.5,170.0 L 672.0,174.5 L 673.5,179.0 L 675.5,183.0 L 677.0,187.5 L 678.5,192.0 L 680.5,196.0 L 682.5,200.0 L 683.5,205.0 L 685.5,209.0 L 687.0,213.5 L 688.5,218.0 L 690.5,222.0 L 692.5,226.0 L 694.0,230.5 L 695.5,235.0 L 697.5,239.0 L 699.0,243.5 L 700.5,248.0 L 702.5,252.0 L 704.5,256.0 L 705.5,261.0 L 707.5,265.0 L 709.5,269.0 L 711.0,273.5 L 712.5,278.0 L 714.5,282.0 L 716.0,286.5 L 717.5,291.0 L 719.5,295.0 L 721.0,299.5 L 722.5,304.0 L 724.5,308.0 L 726.0,312.5 L 728.0,316.5 L 729.5,321.0 L 731.5,325.0 L 733.0,329.5 L 734.5,334.0 L 736.5,338.0 L 738.0,342.5 L 739.5,347.0 L 741.5,351.0 L 743.0,355.5 L 744.5,360.0 L 746.5,364.0 L 748.0,368.5 L 749.5,373.0 L 751.5,377.0 L 753.5,381.0 L 754.5,386.0 L 756.5,390.0 L 758.5,394.0 L 760.0,398.5 L 761.5,403.0 L 763.5,407.0 L 765.0,411.5 L 766.5,416.0 L 768.5,420.0 L 770.0,424.5 L 771.5,429.0 L 773.5,433.0 L 775.0,437.5 L 776.5,442.0 L 778.5,446.0 L 780.5,450.0 L 782.0,454.5 L 783.5,459.0 L 785.5,463.0 L 787.0,467.5 L 788.5,472.0 L 790.5,476.0 L 792.0,480.5 L 794.0,484.5 L 795.5,489.0 L 797.5,493.0 L 799.0,497.5 L 800.5,502.0 L 802.5,506.0 L 804.0,510.5 L 810.0,510.5 L 810.5,507.0 L 808.5,503.0 L 807.5,498.0 L 805.5,494.0 L 805.0,489.5 L 807.0,493.5 L 808.5,498.0 L 810.0,502.5 L 811.5,505.0 L 813.5,509.0 L 819.0,509.5 L 825.0,509.5 L 831.0,509.5 L 837.0,509.5 L 835.0,510.5 L 829.0,510.5 L 823.0,510.5 L 817.0,510.5 L 816.0,512.5 L 821.0,511.5 L 826.0,512.5 L 832.0,512.5 L 838.0,512.5 L 844.0,512.5 L 845.5,517.0 L 843.5,521.0 L 842.0,519.5 L 840.5,524.0 L 838.5,528.0 L 838.5,530.0 L 838.5,534.0 L 835.0,536.5 L 836.5,540.0 L 835.5,545.0 L 833.5,549.0 L 831.5,553.0 L 833.5,557.0 L 835.5,561.0 L 837.5,565.0 L 837.0,570.5 L 835.5,566.0 L 833.5,562.0 L 832.0,557.5 L 829.5,557.0 L 828.5,562.0 L 828.5,566.0 L 829.5,571.0 L 831.5,575.0 L 832.5,580.0 L 834.5,584.0 L 836.5,588.0 L 838.0,592.5 L 839.5,597.0 L 841.5,601.0 L 843.0,605.5 L 844.5,610.0 L 846.5,614.0 L 848.0,618.5 L 849.5,623.0 L 851.5,627.0 L 853.0,631.5 L 854.5,636.0 L 856.5,640.0 L 858.5,644.0 L 860.0,648.5 L 861.5,653.0 L 863.5,657.0 L 865.0,661.5 L 866.5,666.0 L 868.5,670.0 L 870.5,674.0 L 871.5,679.0 L 873.5,683.0 L 875.5,687.0 L 876.5,692.0 L 878.5,696.0 L 880.5,700.0 L 882.0,704.5 L 883.5,709.0 L 884.0,713.5 L 880.0,715.5 L 876.0,717.5 L 872.5,720.0 L 868.5,722.0 L 864.5,724.0 L 860.5,726.0 L 857.0,728.5 L 853.0,730.5 L 849.0,732.5 L 845.0,734.5 L 841.0,736.5 L 837.0,738.5 L 833.0,740.5 L 829.5,743.0 L 825.5,745.0 L 821.5,747.0 L 817.5,749.0 L 814.0,751.5 L 810.0,753.5 L 806.0,755.5 L 802.0,757.5 L 798.0,759.5 L 794.0,761.5 L 790.5,764.0 L 786.5,766.0 L 782.5,768.0 L 778.5,770.0 L 775.0,772.5 L 771.0,774.5 L 767.0,776.5 L 763.0,778.5 L 759.5,778.0 L 757.5,774.0 L 755.5,770.0 L 754.0,765.5 L 751.5,769.0 L 749.5,773.0 L 747.5,777.0 L 744.5,780.0 L 742.5,784.0 L 742.0,786.5 L 748.0,786.5 L 754.0,786.5 L 760.0,786.5 L 765.0,785.5 L 769.0,783.5 L 773.0,781.5 L 772.0,783.5 L 768.0,785.5 L 764.0,787.5 L 758.0,787.5 L 752.0,787.5 L 746.0,787.5 L 741.0,788.5 L 736.5,790.0 L 733.5,793.0 L 730.5,796.0 L 728.0,795.5 L 726.0,799.5 L 723.0,802.5 L 720.0,805.5 L 717.0,808.5 L 713.5,811.0 Z M 140.0,813.5 L 135.0,812.5 L 131.0,812.5 L 125.0,812.5 L 119.0,812.5 L 113.0,812.5 L 107.0,812.5 L 102.5,812.0 L 98.0,813.5 L 100.0,812.5 L 96.0,811.5 L 91.0,810.5 L 86.0,809.5 L 82.0,807.5 L 77.0,808.5 L 72.0,807.5 L 68.0,805.5 L 64.0,803.5 L 60.0,801.5 L 57.0,799.5 L 56.0,797.5 L 52.0,797.5 L 48.5,795.0 L 49.0,792.5 L 45.5,790.0 L 42.0,789.5 L 38.0,787.5 L 32.0,787.5 L 26.0,787.5 L 20.0,787.5 L 14.0,787.5 L 9.5,788.0 L 8.0,783.5 L 9.5,780.0 L 11.5,779.0 L 9.5,783.0 L 12.0,786.5 L 18.0,786.5 L 24.0,786.5 L 30.0,786.5 L 36.0,786.5 L 37.0,784.5 L 34.0,781.5 L 31.0,778.5 L 28.5,775.0 L 25.5,772.0 L 23.0,768.5 L 21.0,764.5 L 18.5,761.0 L 16.0,757.5 L 14.5,753.0 L 12.5,749.0 L 10.5,745.0 L 12.5,745.0 L 11.0,740.5 L 9.5,736.0 L 8.5,731.0 L 7.0,726.5 L 5.5,722.0 L 4.5,717.0 L 4.0,712.5 L 3.5,708.0 L 2.5,703.0 L 1.5,698.0 L 1.5,692.0 L 1.5,686.0 L 1.5,680.0 L 1.5,674.0 L 1.5,668.0 L 1.5,662.0 L 2.5,657.0 L 2.5,653.0 L 3.5,648.0 L 4.5,643.0 L 5.0,637.5 L 6.5,633.0 L 7.5,628.0 L 6.5,623.0 L 8.0,618.5 L 9.5,614.0 L 11.5,610.0 L 13.5,607.0 L 14.0,605.5 L 14.5,601.0 L 16.5,597.0 L 19.0,593.5 L 22.0,592.5 L 22.0,588.5 L 24.0,588.5 L 26.5,585.0 L 26.5,581.0 L 29.0,577.5 L 31.5,574.0 L 34.5,571.0 L 37.0,567.5 L 40.0,564.5 L 43.0,563.5 L 46.0,560.5 L 47.0,557.5 L 49.5,554.0 L 53.0,551.5 L 55.0,547.5 L 58.0,544.5 L 61.0,543.5 L 63.0,539.5 L 66.0,536.5 L 69.5,534.0 L 72.5,531.0 L 76.0,528.5 L 79.5,526.0 L 83.5,524.0 L 87.0,523.5 L 88.5,523.0 L 90.0,520.5 L 94.0,520.5 L 94.0,518.5 L 97.5,516.0 L 102.0,514.5 L 106.0,512.5 L 110.5,511.0 L 115.0,509.5 L 120.0,510.5 L 125.0,509.5 L 126.0,507.5 L 130.0,506.5 L 131.0,501.5 L 133.0,502.5 L 132.0,506.5 L 137.0,505.5 L 143.0,505.5 L 148.0,504.5 L 154.0,504.5 L 160.0,504.5 L 166.0,504.5 L 171.0,505.5 L 177.0,505.5 L 182.0,506.5 L 187.0,507.5 L 192.0,508.5 L 196.5,510.0 L 201.0,511.5 L 205.5,513.0 L 209.5,515.0 L 213.5,517.0 L 217.5,519.0 L 221.0,521.5 L 224.5,524.0 L 228.0,526.5 L 231.0,529.5 L 234.0,532.5 L 237.0,535.5 L 239.5,539.0 L 242.5,542.0 L 245.0,545.5 L 247.0,549.5 L 249.5,553.0 L 251.5,557.0 L 253.5,561.0 L 255.5,565.0 L 257.0,569.5 L 258.5,574.0 L 260.5,578.0 L 261.5,583.0 L 262.5,588.0 L 260.0,591.5 L 256.5,594.0 L 253.5,597.0 L 250.5,600.0 L 247.5,603.0 L 244.5,606.0 L 241.0,608.5 L 238.0,611.5 L 235.0,614.5 L 232.0,617.5 L 228.5,620.0 L 225.0,622.5 L 220.0,623.5 L 215.0,624.5 L 210.0,625.5 L 205.0,626.5 L 201.0,628.5 L 196.0,629.5 L 191.0,630.5 L 187.0,632.5 L 182.0,633.5 L 177.0,634.5 L 172.5,636.0 L 168.0,637.5 L 165.5,634.0 L 164.0,629.5 L 162.5,625.0 L 160.5,621.0 L 158.5,617.0 L 156.0,613.5 L 153.5,610.0 L 150.5,607.0 L 147.0,604.5 L 143.5,602.0 L 139.0,600.5 L 134.5,599.0 L 129.0,598.5 L 124.0,597.5 L 119.0,598.5 L 113.5,599.0 L 111.0,602.5 L 109.5,607.0 L 108.5,612.0 L 107.5,617.0 L 106.5,622.0 L 106.5,628.0 L 105.5,633.0 L 105.5,639.0 L 105.5,645.0 L 105.5,651.0 L 105.5,657.0 L 106.5,662.0 L 106.5,668.0 L 107.5,673.0 L 108.5,678.0 L 109.5,683.0 L 111.0,687.5 L 112.5,692.0 L 114.5,696.0 L 116.5,700.0 L 119.0,703.5 L 121.5,707.0 L 124.5,710.0 L 128.0,712.5 L 131.5,715.0 L 135.5,717.0 L 140.0,718.5 L 146.0,718.5 L 152.0,718.5 L 157.0,717.5 L 161.0,715.5 L 165.0,713.5 L 167.0,709.5 L 168.5,705.0 L 169.5,700.0 L 172.0,696.5 L 175.0,693.5 L 178.0,690.5 L 181.0,687.5 L 184.0,684.5 L 187.5,682.0 L 190.5,679.0 L 193.5,676.0 L 196.5,673.0 L 199.5,670.0 L 203.0,667.5 L 206.0,664.5 L 211.0,663.5 L 215.5,665.0 L 220.0,666.5 L 224.0,668.5 L 228.0,670.5 L 232.5,672.0 L 237.0,673.5 L 239.0,669.5 L 241.0,665.5 L 243.0,661.5 L 245.0,657.5 L 247.0,653.5 L 248.5,654.0 L 246.5,658.0 L 244.5,662.0 L 242.5,666.0 L 240.5,670.0 L 240.5,674.0 L 243.0,676.5 L 243.0,677.5 L 246.5,680.0 L 250.0,680.5 L 254.0,682.5 L 258.5,684.0 L 260.0,683.5 L 261.5,685.0 L 260.5,687.0 L 259.0,687.5 L 262.5,689.0 L 266.5,690.0 L 264.5,694.0 L 262.5,698.0 L 263.5,701.0 L 262.0,705.5 L 261.5,707.0 L 259.5,709.0 L 259.5,713.0 L 257.5,717.0 L 256.0,715.5 L 254.5,720.0 L 252.5,724.0 L 252.5,728.0 L 250.5,732.0 L 248.0,735.5 L 245.0,736.5 L 245.0,740.5 L 244.5,742.0 L 241.5,743.0 L 242.0,745.5 L 239.5,749.0 L 237.0,752.5 L 234.5,756.0 L 232.0,759.5 L 229.0,762.5 L 226.5,766.0 L 223.5,768.0 L 221.0,768.5 L 217.5,771.0 L 217.0,774.5 L 214.0,777.5 L 211.0,780.5 L 208.0,783.5 L 205.5,785.0 L 202.0,785.5 L 201.0,788.5 L 197.5,789.0 L 196.5,792.0 L 192.5,794.0 L 189.0,796.5 L 185.0,798.5 L 182.0,798.5 L 180.0,801.5 L 176.0,803.5 L 172.0,805.5 L 167.0,806.5 L 163.0,806.5 L 158.5,808.0 L 156.5,809.0 L 152.0,809.5 L 146.5,810.0 L 141.0,810.5 L 136.5,812.0 L 140.0,813.5 Z M 478.0,812.5 L 478.0,808.5 L 475.5,807.0 L 473.5,803.0 L 473.5,799.0 L 472.0,798.5 L 470.5,794.0 L 470.5,790.0 L 469.0,785.5 L 467.0,781.5 L 465.0,781.5 L 465.5,777.0 L 463.0,775.5 L 462.0,771.5 L 461.5,767.0 L 460.0,762.5 L 459.0,759.5 L 457.5,760.0 L 456.0,756.5 L 451.0,755.5 L 445.0,755.5 L 439.0,755.5 L 433.0,755.5 L 427.0,755.5 L 421.0,755.5 L 415.0,755.5 L 409.0,755.5 L 403.0,755.5 L 397.0,755.5 L 391.0,755.5 L 385.0,755.5 L 380.0,756.5 L 376.0,756.5 L 374.0,760.5 L 372.0,764.5 L 370.0,768.5 L 367.5,772.0 L 365.5,776.0 L 362.5,778.0 L 361.0,780.5 L 359.0,783.5 L 355.5,786.0 L 352.5,789.0 L 350.0,792.5 L 347.0,795.5 L 344.0,798.5 L 341.0,801.5 L 338.5,800.0 L 335.5,800.0 L 336.5,803.0 L 333.5,806.0 L 331.0,809.5 L 327.0,811.5 L 321.0,811.5 L 315.0,811.5 L 309.0,811.5 L 303.0,811.5 L 297.0,811.5 L 291.0,811.5 L 285.0,811.5 L 279.0,811.5 L 273.0,811.5 L 267.0,811.5 L 262.0,810.5 L 258.0,810.5 L 257.5,807.0 L 259.5,803.0 L 261.5,799.0 L 263.5,795.0 L 265.5,791.0 L 267.5,790.0 L 270.5,788.0 L 269.0,784.5 L 271.0,780.5 L 273.0,776.5 L 275.0,772.5 L 277.0,772.5 L 277.0,768.5 L 279.0,764.5 L 281.0,764.5 L 280.5,760.0 L 283.0,756.5 L 285.0,752.5 L 287.0,752.5 L 287.0,748.5 L 289.0,748.5 L 288.5,744.0 L 291.0,740.5 L 293.0,736.5 L 294.5,732.0 L 296.5,728.0 L 299.0,724.5 L 301.0,720.5 L 303.0,716.5 L 305.0,716.5 L 304.5,712.0 L 307.0,708.5 L 309.0,704.5 L 311.0,700.5 L 313.0,700.5 L 315.5,697.0 L 315.0,692.5 L 317.0,692.5 L 318.0,688.5 L 319.0,684.5 L 321.0,680.5 L 323.0,676.5 L 325.0,672.5 L 328.0,671.5 L 327.5,667.0 L 329.5,666.0 L 332.5,664.0 L 331.0,660.5 L 333.0,656.5 L 334.5,652.0 L 337.0,652.5 L 339.0,648.5 L 340.0,644.5 L 337.0,647.5 L 335.0,645.5 L 329.0,645.5 L 323.0,645.5 L 317.0,645.5 L 311.0,645.5 L 305.0,645.5 L 299.0,645.5 L 293.0,645.5 L 287.0,645.5 L 281.0,645.5 L 275.0,645.5 L 269.0,645.5 L 263.0,645.5 L 257.0,645.5 L 253.0,645.5 L 251.0,649.5 L 250.5,646.0 L 254.0,643.5 L 260.0,643.5 L 266.0,643.5 L 272.0,643.5 L 278.0,643.5 L 284.0,643.5 L 290.0,643.5 L 296.0,643.5 L 302.0,643.5 L 308.0,643.5 L 314.0,643.5 L 320.0,643.5 L 326.0,643.5 L 332.0,643.5 L 338.0,643.5 L 341.0,640.5 L 343.5,637.0 L 345.5,633.0 L 347.5,629.0 L 349.0,624.5 L 351.5,621.0 L 353.0,616.5 L 355.0,612.5 L 357.0,608.5 L 359.0,604.5 L 361.0,600.5 L 363.0,596.5 L 365.0,592.5 L 367.0,588.5 L 369.0,584.5 L 371.0,580.5 L 373.0,576.5 L 375.0,572.5 L 377.0,568.5 L 379.0,564.5 L 380.5,560.0 L 382.5,556.0 L 384.5,552.0 L 387.0,548.5 L 389.5,545.0 L 392.5,542.0 L 396.0,539.5 L 398.5,536.0 L 401.5,533.0 L 405.0,530.5 L 407.5,527.0 L 411.0,524.5 L 414.0,521.5 L 417.0,518.5 L 420.0,515.5 L 423.0,512.5 L 427.0,510.5 L 433.0,510.5 L 439.0,510.5 L 445.0,510.5 L 451.0,510.5 L 457.0,510.5 L 463.0,510.5 L 469.0,510.5 L 475.0,510.5 L 481.0,510.5 L 487.0,510.5 L 489.0,514.5 L 490.5,519.0 L 492.5,523.0 L 493.5,528.0 L 495.5,532.0 L 497.0,536.5 L 498.5,541.0 L 500.5,545.0 L 501.5,550.0 L 503.5,554.0 L 505.0,558.5 L 506.5,563.0 L 508.5,567.0 L 510.0,571.5 L 511.5,576.0 L 513.0,580.5 L 514.5,585.0 L 516.5,589.0 L 518.0,593.5 L 519.5,598.0 L 521.5,602.0 L 522.5,607.0 L 524.5,611.0 L 526.5,615.0 L 527.5,620.0 L 529.5,624.0 L 531.0,628.5 L 532.5,633.0 L 534.5,637.0 L 536.0,641.5 L 537.5,646.0 L 539.0,650.5 L 540.5,655.0 L 542.5,659.0 L 544.0,663.5 L 545.5,668.0 L 547.0,672.5 L 549.0,676.5 L 550.5,681.0 L 552.5,685.0 L 554.0,689.5 L 555.5,694.0 L 557.0,698.5 L 558.5,703.0 L 560.5,707.0 L 562.0,711.5 L 563.5,716.0 L 565.5,720.0 L 566.5,725.0 L 568.5,729.0 L 570.0,733.5 L 571.5,738.0 L 573.5,742.0 L 575.0,746.5 L 576.5,751.0 L 578.5,755.0 L 579.5,760.0 L 581.5,764.0 L 583.0,768.5 L 584.5,773.0 L 585.0,777.5 L 582.5,781.0 L 579.5,784.0 L 579.0,786.5 L 585.0,786.5 L 591.0,786.5 L 597.0,786.5 L 603.0,786.5 L 609.0,786.5 L 615.0,786.5 L 621.0,786.5 L 627.0,786.5 L 625.0,787.5 L 619.0,787.5 L 613.0,787.5 L 607.0,787.5 L 601.0,787.5 L 595.0,787.5 L 589.0,787.5 L 583.0,787.5 L 577.0,787.5 L 573.5,790.0 L 570.0,792.5 L 566.5,793.0 L 565.5,795.0 L 565.0,797.5 L 562.0,800.5 L 558.5,801.0 L 555.5,804.0 L 552.5,807.0 L 553.0,809.5 L 550.5,810.0 L 546.0,810.5 L 541.0,811.5 L 535.0,811.5 L 529.0,811.5 L 523.0,811.5 L 517.0,811.5 L 511.0,811.5 L 505.0,811.5 L 499.0,811.5 L 493.0,811.5 L 487.0,811.5 L 481.0,811.5 Z M 473.0,81.5 L 467.0,81.5 L 461.0,81.5 L 455.0,81.5 L 449.0,81.5 L 443.0,81.5 L 437.0,81.5 L 431.0,81.5 L 425.0,81.5 L 419.0,81.5 L 413.0,81.5 L 407.0,81.5 L 401.0,81.5 L 395.0,81.5 L 389.0,81.5 L 383.0,81.5 L 377.0,81.5 L 371.0,81.5 L 365.0,81.5 L 359.0,81.5 L 353.0,81.5 L 347.0,81.5 L 341.0,81.5 L 335.0,81.5 L 329.0,81.5 L 323.0,81.5 L 317.0,81.5 L 316.5,80.0 L 320.0,77.5 L 323.5,75.0 L 327.5,73.0 L 331.0,70.5 L 335.0,68.5 L 338.5,66.0 L 342.5,64.0 L 346.0,61.5 L 350.0,59.5 L 353.5,57.0 L 357.5,55.0 L 361.0,52.5 L 364.5,50.0 L 368.0,47.5 L 372.0,45.5 L 375.5,43.0 L 379.5,41.0 L 383.0,38.5 L 387.0,36.5 L 390.5,34.0 L 394.5,32.0 L 398.0,29.5 L 402.0,27.5 L 405.5,25.0 L 409.5,23.0 L 413.0,20.5 L 417.0,18.5 L 420.5,16.0 L 424.0,13.5 L 428.0,11.5 L 431.5,9.0 L 437.0,8.5 L 443.0,8.5 L 449.0,8.5 L 455.0,8.5 L 461.0,8.5 L 467.0,8.5 L 473.0,8.5 L 479.0,8.5 L 485.0,8.5 L 491.0,8.5 L 497.0,8.5 L 503.0,8.5 L 509.0,8.5 L 515.0,8.5 L 521.0,8.5 L 527.0,8.5 L 533.0,8.5 L 539.0,8.5 L 545.0,8.5 L 551.0,8.5 L 557.0,8.5 L 563.0,8.5 L 569.0,8.5 L 575.0,8.5 L 581.0,8.5 L 587.0,8.5 L 592.0,9.5 L 589.5,12.0 L 586.0,14.5 L 582.0,16.5 L 578.0,18.5 L 574.0,20.5 L 570.5,23.0 L 567.0,25.5 L 563.0,27.5 L 559.0,29.5 L 555.5,32.0 L 552.0,34.5 L 548.0,36.5 L 544.5,39.0 L 540.5,41.0 L 537.0,43.5 L 533.0,45.5 L 529.5,48.0 L 525.5,50.0 L 522.0,52.5 L 518.0,54.5 L 514.0,56.5 L 510.5,59.0 L 507.0,61.5 L 503.0,63.5 L 499.5,66.0 L 495.5,68.0 L 492.0,70.5 L 488.0,72.5 L 484.0,74.5 L 480.5,77.0 L 476.5,79.0 L 473.0,81.5 Z M 313.0,490.5 L 313.5,486.0 L 315.5,482.0 L 317.0,477.5 L 318.5,473.0 L 320.5,469.0 L 322.5,465.0 L 324.0,460.5 L 325.5,456.0 L 327.5,452.0 L 329.0,447.5 L 330.5,443.0 L 332.5,439.0 L 334.0,434.5 L 335.5,430.0 L 337.5,426.0 L 339.0,421.5 L 340.5,417.0 L 342.5,413.0 L 344.5,409.0 L 345.5,404.0 L 347.5,400.0 L 349.0,395.5 L 350.5,391.0 L 352.5,387.0 L 354.5,383.0 L 356.0,378.5 L 357.5,374.0 L 359.0,369.5 L 361.0,365.5 L 362.5,361.0 L 364.5,357.0 L 366.0,352.5 L 367.5,348.0 L 369.5,344.0 L 371.0,339.5 L 372.5,335.0 L 374.5,331.0 L 376.0,326.5 L 377.5,322.0 L 379.5,318.0 L 381.0,313.5 L 383.5,311.0 L 385.0,315.5 L 386.5,320.0 L 388.5,324.0 L 390.0,328.5 L 391.5,333.0 L 393.0,337.5 L 394.5,342.0 L 396.5,346.0 L 398.0,350.5 L 399.5,355.0 L 401.5,359.0 L 402.5,364.0 L 404.5,368.0 L 406.5,372.0 L 407.5,377.0 L 409.5,381.0 L 411.0,385.5 L 412.5,390.0 L 414.5,394.0 L 416.0,398.5 L 417.5,403.0 L 419.5,407.0 L 420.5,412.0 L 422.5,416.0 L 424.5,420.0 L 425.0,424.5 L 421.0,426.5 L 417.5,429.0 L 413.5,431.0 L 410.0,433.5 L 406.0,435.5 L 402.0,437.5 L 398.5,440.0 L 394.5,442.0 L 391.0,444.5 L 387.0,446.5 L 383.0,448.5 L 379.5,451.0 L 375.5,453.0 L 372.0,455.5 L 368.0,457.5 L 364.5,460.0 L 360.5,462.0 L 357.0,464.5 L 353.0,466.5 L 349.0,468.5 L 345.5,471.0 L 341.5,473.0 L 338.0,475.5 L 334.0,477.5 L 330.5,480.0 L 326.5,482.0 L 323.0,484.5 L 319.0,486.5 L 315.5,489.0 Z M 452.0,496.5 L 446.0,496.5 L 440.0,496.5 L 434.0,496.5 L 428.0,496.5 L 422.0,496.5 L 416.0,496.5 L 410.0,496.5 L 404.0,496.5 L 398.0,496.5 L 392.0,496.5 L 386.0,496.5 L 380.0,496.5 L 374.0,496.5 L 368.0,496.5 L 362.0,496.5 L 356.0,496.5 L 350.0,496.5 L 344.0,496.5 L 338.0,496.5 L 332.0,496.5 L 326.0,496.5 L 322.0,495.5 L 325.5,493.0 L 329.0,490.5 L 333.0,488.5 L 337.0,486.5 L 340.5,484.0 L 344.0,481.5 L 348.0,479.5 L 352.0,477.5 L 355.5,475.0 L 359.5,473.0 L 363.0,470.5 L 367.0,468.5 L 370.5,466.0 L 374.5,464.0 L 378.5,462.0 L 382.0,459.5 L 386.0,457.5 L 389.5,455.0 L 393.5,453.0 L 397.0,450.5 L 401.0,448.5 L 405.0,446.5 L 408.5,444.0 L 412.5,442.0 L 416.0,439.5 L 420.0,437.5 L 423.5,435.0 L 427.5,433.0 L 430.5,435.0 L 431.5,440.0 L 433.5,444.0 L 435.0,448.5 L 436.5,453.0 L 438.5,457.0 L 440.0,461.5 L 441.5,466.0 L 443.5,470.0 L 444.5,475.0 L 446.5,479.0 L 448.5,483.0 L 449.5,488.0 L 451.5,492.0 L 452.0,496.5 Z M 426.0,3.5 L 427.0,1.5 L 431.0,-0.5 L 437.0,-0.5 L 443.0,-0.5 L 449.0,-0.5 L 455.0,-0.5 L 461.0,-0.5 L 467.0,-0.5 L 473.0,-0.5 L 479.0,-0.5 L 485.0,-0.5 L 491.0,-0.5 L 497.0,-0.5 L 503.0,-0.5 L 509.0,-0.5 L 515.0,-0.5 L 521.0,-0.5 L 527.0,-0.5 L 533.0,-0.5 L 539.0,-0.5 L 545.0,-0.5 L 551.0,-0.5 L 557.0,-0.5 L 563.0,-0.5 L 569.0,-0.5 L 575.0,-0.5 L 581.0,-0.5 L 587.0,-0.5 L 593.0,-0.5 L 599.0,-0.5 L 605.0,-0.5 L 610.0,0.5 L 608.0,1.5 L 602.5,1.0 L 597.0,0.5 L 591.0,0.5 L 585.0,0.5 L 579.0,0.5 L 573.0,0.5 L 567.0,0.5 L 561.0,0.5 L 555.0,0.5 L 549.0,0.5 L 543.0,0.5 L 537.0,0.5 L 531.0,0.5 L 525.0,0.5 L 519.0,0.5 L 513.0,0.5 L 507.0,0.5 L 501.0,0.5 L 495.0,0.5 L 489.0,0.5 L 483.0,0.5 L 477.0,0.5 L 471.0,0.5 L 465.0,0.5 L 459.0,0.5 L 453.0,0.5 L 447.0,0.5 L 441.0,0.5 L 435.0,0.5 L 429.5,1.0 L 426.0,3.5 Z M 267.0,160.5 L 267.5,156.0 L 268.0,152.5 L 270.5,149.0 L 272.0,144.5 L 272.5,141.0 L 275.0,137.5 L 276.5,133.0 L 278.0,128.5 L 280.0,124.5 L 281.5,120.0 L 283.0,115.5 L 285.5,112.0 L 286.5,107.0 L 288.5,103.0 L 289.5,98.0 L 291.0,93.5 L 293.5,90.0 L 295.5,86.0 L 297.5,82.0 L 297.5,85.0 L 295.5,89.0 L 294.0,93.5 L 292.5,98.0 L 290.5,102.0 L 288.5,106.0 L 287.0,110.5 L 285.5,115.0 L 283.5,119.0 L 282.0,123.5 L 280.5,128.0 L 278.5,132.0 L 276.5,136.0 L 275.0,140.5 L 273.5,145.0 L 271.5,149.0 L 270.0,153.5 L 268.5,158.0 Z M 891.0,706.5 L 889.5,702.0 L 887.5,698.0 L 886.0,693.5 L 884.5,689.0 L 882.5,685.0 L 880.5,681.0 L 879.0,676.5 L 877.5,672.0 L 875.5,668.0 L 874.0,663.5 L 872.5,659.0 L 870.5,655.0 L 869.0,650.5 L 867.0,646.5 L 865.5,642.0 L 863.5,638.0 L 862.0,633.5 L 860.5,629.0 L 863.5,631.0 L 864.5,636.0 L 866.5,640.0 L 867.5,645.0 L 869.5,649.0 L 871.5,653.0 L 873.0,657.5 L 875.0,661.5 L 876.5,666.0 L 878.5,670.0 L 879.5,675.0 L 881.5,679.0 L 883.5,683.0 L 885.0,687.5 L 886.5,692.0 L 888.5,696.0 L 890.0,700.5 L 891.5,705.0 Z M 713.0,258.5 L 711.5,254.0 L 709.5,250.0 L 708.0,245.5 L 706.5,241.0 L 704.5,237.0 L 702.5,233.0 L 701.0,228.5 L 699.5,224.0 L 697.5,220.0 L 696.0,215.5 L 694.5,211.0 L 692.5,207.0 L 692.0,202.5 L 693.5,207.0 L 695.5,211.0 L 696.5,214.0 L 699.0,217.5 L 700.5,222.0 L 701.5,227.0 L 703.5,231.0 L 705.5,235.0 L 707.0,239.5 L 708.5,244.0 L 710.5,248.0 L 712.0,252.5 L 714.5,256.0 Z M 246.0,214.5 L 246.0,209.5 L 247.5,205.0 L 249.5,201.0 L 251.5,197.0 L 253.0,192.5 L 254.5,188.0 L 256.5,184.0 L 258.5,180.0 L 258.5,176.0 L 261.0,172.5 L 262.5,168.0 L 264.5,164.0 L 266.5,161.0 L 265.0,165.5 L 263.5,170.0 L 262.0,174.5 L 260.5,179.0 L 258.5,183.0 L 256.5,187.0 L 255.0,191.5 L 253.5,196.0 L 251.5,200.0 L 250.0,204.5 L 248.5,209.0 L 246.5,213.0 Z M 690.0,199.5 L 688.0,195.5 L 686.5,191.0 L 684.5,187.0 L 683.0,182.5 L 681.5,178.0 L 679.5,174.0 L 678.0,169.5 L 676.5,165.0 L 674.5,161.0 L 673.0,156.5 L 671.5,152.0 L 669.5,148.0 L 671.5,149.0 L 673.5,153.0 L 675.5,157.0 L 676.5,162.0 L 678.5,166.0 L 680.0,170.5 L 681.5,175.0 L 683.5,179.0 L 685.0,183.5 L 687.0,187.5 L 688.5,192.0 L 690.0,196.5 Z M 150.0,458.5 L 150.5,454.0 L 151.5,449.0 L 153.5,445.0 L 155.5,441.0 L 157.5,437.0 L 158.5,432.0 L 160.5,428.0 L 162.0,423.5 L 163.5,419.0 L 165.5,415.0 L 167.5,411.0 L 169.5,407.0 L 170.0,408.5 L 168.5,413.0 L 166.5,417.0 L 164.5,421.0 L 163.0,425.5 L 161.5,430.0 L 159.5,434.0 L 158.0,438.5 L 156.5,443.0 L 154.5,447.0 L 153.0,451.5 L 151.5,456.0 Z M 783.0,437.5 L 781.5,433.0 L 779.5,429.0 L 778.0,424.5 L 776.5,420.0 L 774.5,416.0 L 773.0,411.5 L 771.5,407.0 L 769.5,403.0 L 768.0,398.5 L 766.5,394.0 L 764.5,390.0 L 766.5,391.0 L 768.0,395.5 L 769.5,400.0 L 771.5,404.0 L 773.5,408.0 L 775.0,412.5 L 777.0,416.5 L 778.5,421.0 L 780.0,425.5 L 781.5,430.0 L 783.5,434.0 Z M 803.0,487.5 L 801.5,483.0 L 799.5,479.0 L 798.0,474.5 L 796.5,470.0 L 794.5,466.0 L 792.5,462.0 L 791.0,457.5 L 789.5,453.0 L 787.5,449.0 L 786.0,444.5 L 787.5,444.0 L 789.0,448.5 L 790.0,451.5 L 792.0,455.5 L 794.0,459.5 L 795.5,464.0 L 797.0,468.5 L 798.5,473.0 L 800.5,477.0 L 802.0,481.5 L 803.5,486.0 Z M 729.0,299.5 L 727.5,295.0 L 725.5,291.0 L 724.0,286.5 L 722.5,282.0 L 720.5,278.0 L 718.5,274.0 L 717.5,269.0 L 715.5,265.0 L 713.5,261.0 L 715.5,260.0 L 717.5,264.0 L 718.5,269.0 L 720.0,273.5 L 721.5,278.0 L 723.5,282.0 L 725.5,286.0 L 727.0,290.5 L 729.0,292.5 L 729.5,296.0 Z M 220.0,281.5 L 220.5,277.0 L 222.0,272.5 L 223.5,268.0 L 225.5,264.0 L 227.0,259.5 L 229.0,255.5 L 230.0,250.5 L 231.5,246.0 L 233.5,242.0 L 235.0,242.5 L 233.5,247.0 L 231.5,251.0 L 230.5,256.0 L 228.5,260.0 L 226.5,264.0 L 225.0,268.5 L 223.5,273.0 L 221.5,277.0 L 220.0,281.5 Z M 664.0,133.5 L 662.5,129.0 L 660.5,125.0 L 658.5,121.0 L 657.0,116.5 L 655.5,112.0 L 653.5,108.0 L 652.0,103.5 L 650.5,99.0 L 650.5,96.0 L 652.5,100.0 L 653.5,105.0 L 655.5,109.0 L 657.5,113.0 L 658.5,116.0 L 660.5,120.0 L 661.5,125.0 L 663.5,129.0 L 664.0,133.5 Z M 200.0,331.5 L 200.5,327.0 L 202.0,322.5 L 203.5,318.0 L 205.5,314.0 L 207.5,310.0 L 209.0,305.5 L 210.5,301.0 L 212.5,297.0 L 214.5,294.0 L 213.0,298.5 L 211.5,303.0 L 209.5,307.0 L 208.0,311.5 L 206.5,316.0 L 204.5,320.0 L 203.0,324.5 L 201.5,329.0 Z M 134.0,500.5 L 133.0,496.5 L 135.0,492.5 L 137.0,488.5 L 138.5,484.0 L 139.5,479.0 L 141.5,475.0 L 143.5,471.0 L 145.5,467.0 L 147.5,464.0 L 146.0,468.5 L 144.5,473.0 L 142.5,477.0 L 141.0,481.5 L 139.5,486.0 L 137.5,490.0 L 136.0,494.5 L 134.5,499.0 Z M 743.0,335.5 L 741.5,331.0 L 739.5,327.0 L 738.0,322.5 L 736.5,318.0 L 734.5,314.0 L 733.0,309.5 L 731.5,305.0 L 729.5,301.0 L 731.5,302.0 L 733.0,306.5 L 734.5,311.0 L 736.5,315.0 L 738.0,318.5 L 739.5,322.0 L 741.5,326.0 L 743.0,330.5 L 743.0,335.5 Z M 171.0,405.5 L 171.5,401.0 L 173.0,396.5 L 174.5,392.0 L 176.0,387.5 L 178.5,384.0 L 179.5,379.0 L 181.5,375.0 L 183.5,371.0 L 184.0,372.5 L 182.5,377.0 L 180.5,381.0 L 179.0,385.5 L 177.5,390.0 L 175.5,394.0 L 174.0,398.5 L 172.5,403.0 Z M 764.0,388.5 L 762.5,384.0 L 760.5,380.0 L 758.5,376.0 L 757.0,371.5 L 755.5,367.0 L 753.5,363.0 L 755.5,362.0 L 756.5,367.0 L 758.5,371.0 L 760.0,375.5 L 762.0,379.5 L 763.5,384.0 L 764.0,388.5 Z M 842.0,747.5 L 839.5,746.0 L 843.5,744.0 L 847.5,742.0 L 851.5,740.0 L 855.0,737.5 L 859.0,735.5 L 862.0,735.5 L 858.5,738.0 L 855.0,740.5 L 850.5,742.0 L 846.5,744.0 L 843.0,746.5 Z M 849.0,600.5 L 847.5,596.0 L 845.5,592.0 L 844.0,587.5 L 842.5,583.0 L 840.5,579.0 L 840.5,576.0 L 843.0,579.5 L 844.0,584.5 L 845.5,589.0 L 847.5,593.0 L 849.0,597.5 Z M 622.0,27.5 L 620.5,23.0 L 618.5,19.0 L 617.0,14.5 L 615.5,10.0 L 613.5,6.0 L 615.5,7.0 L 617.5,11.0 L 619.0,15.5 L 620.5,18.0 L 621.5,23.0 L 622.0,27.5 Z M 649.0,95.5 L 647.5,91.0 L 645.5,87.0 L 644.0,82.5 L 642.5,78.0 L 640.5,74.0 L 642.5,75.0 L 644.0,79.5 L 645.5,84.0 L 647.5,88.0 L 649.5,92.0 Z M 300.0,81.5 L 300.5,79.0 L 304.5,77.0 L 307.5,74.0 L 311.0,71.5 L 315.5,70.0 L 316.0,71.5 L 312.0,73.5 L 308.5,76.0 L 305.0,78.5 L 301.0,80.5 Z M 192.0,352.5 L 192.0,347.5 L 194.0,343.5 L 195.5,339.0 L 197.5,335.0 L 199.5,332.0 L 198.5,337.0 L 196.5,341.0 L 194.5,345.0 L 193.0,349.5 Z M 635.0,59.5 L 633.0,55.5 L 631.5,51.0 L 629.5,47.0 L 628.0,42.5 L 628.5,41.0 L 630.5,45.0 L 632.5,49.0 L 634.0,53.5 L 635.5,58.0 Z M 319.0,69.5 L 320.0,67.5 L 323.5,65.0 L 326.5,62.0 L 331.0,60.5 L 332.5,61.0 L 328.5,63.0 L 325.0,65.5 L 321.5,68.0 Z M 856.0,618.5 L 854.5,614.0 L 852.5,610.0 L 851.0,605.5 L 849.5,601.0 L 851.5,604.0 L 853.5,608.0 L 855.5,612.0 L 856.5,617.0 Z M 377.0,33.5 L 378.0,31.5 L 381.5,29.0 L 385.0,26.5 L 389.0,24.5 L 388.0,26.5 L 384.5,29.0 L 380.5,31.0 L 377.0,33.5 Z M 799.0,769.5 L 798.5,768.0 L 802.5,766.0 L 806.5,764.0 L 810.0,761.5 L 809.5,764.0 L 805.5,766.0 L 801.5,768.0 Z M 753.0,360.5 L 751.5,356.0 L 749.5,352.0 L 747.5,348.0 L 749.5,347.0 L 751.0,351.5 L 753.0,355.5 L 753.0,360.5 Z M 864.0,734.5 L 865.0,732.5 L 869.0,730.5 L 873.0,728.5 L 874.5,729.0 L 870.5,731.0 L 866.5,733.0 Z M 640.0,72.5 L 638.5,68.0 L 636.5,64.0 L 636.0,59.5 L 637.5,64.0 L 639.5,68.0 L 640.0,72.5 Z M 669.0,146.5 L 667.5,142.0 L 665.5,138.0 L 665.0,133.5 L 667.0,137.5 L 668.5,142.0 L 669.0,146.5 Z M 239.0,232.5 L 239.5,228.0 L 241.0,223.5 L 243.0,219.5 L 242.5,224.0 L 240.5,228.0 L 239.0,232.5 Z M 893.0,718.5 L 893.0,715.5 L 892.5,711.0 L 892.0,706.5 L 894.5,710.0 L 895.5,715.0 L 893.0,718.5 Z M 880.0,727.5 L 876.0,726.5 L 880.0,724.5 L 884.0,722.5 L 886.0,723.5 L 881.5,725.0 L 880.0,727.5 Z M 416.0,9.5 L 416.0,6.5 L 419.0,5.5 L 423.0,3.5 L 422.0,5.5 L 418.5,8.0 Z M 338.0,57.5 L 338.0,54.5 L 341.0,53.5 L 345.0,51.5 L 344.0,53.5 L 340.5,56.0 Z M 627.0,39.5 L 625.5,35.0 L 623.5,31.0 L 625.5,32.0 L 627.5,36.0 Z M 215.0,293.5 L 215.5,289.0 L 217.0,284.5 L 218.0,286.5 L 216.5,291.0 Z M 747.0,345.5 L 745.5,341.0 L 743.5,337.0 L 745.5,338.0 L 747.5,342.0 Z M 823.0,756.5 L 824.0,754.5 L 828.0,752.5 L 829.5,753.0 L 826.0,755.5 Z M 777.0,781.5 L 776.5,780.0 L 780.0,777.5 L 783.0,777.5 L 779.0,779.5 Z M 351.0,49.5 L 351.5,47.0 L 355.0,44.5 L 356.0,46.5 L 352.0,48.5 Z M 814.0,761.5 L 813.5,760.0 L 817.5,758.0 L 818.0,759.5 L 814.0,761.5 Z M 15.0,770.5 L 15.5,766.0 L 18.0,762.5 L 17.0,766.5 L 15.0,770.5 Z M 400.0,19.5 L 400.0,16.5 L 405.0,15.5 L 402.0,17.5 Z M 236.0,240.5 L 236.0,235.5 L 238.5,233.0 L 237.0,237.5 Z M 860.0,628.5 L 858.5,624.0 L 859.0,620.5 L 860.5,625.0 Z M 792.0,773.5 L 791.0,771.5 L 795.0,769.5 L 794.5,772.0 Z M 189.0,359.5 L 189.5,355.0 L 191.5,354.0 L 189.5,358.0 Z M 185.0,369.5 L 185.5,365.0 L 187.5,364.0 L 185.5,368.0 Z M 835.0,750.5 L 834.5,749.0 L 838.5,748.0 L 835.0,750.5 Z M 372.0,36.5 L 373.0,34.5 L 374.5,35.0 Z M 359.0,44.5 L 359.5,42.0 L 361.5,43.0 Z M 889.0,721.5 L 888.5,720.0 L 891.0,719.5 Z M 244.0,219.5 L 244.5,215.0 L 244.5,218.0 Z M 785.0,442.5 L 783.5,438.0 L 785.5,441.0 Z M 148.0,463.5 L 148.5,459.0 L 148.5,462.0 Z M 839.0,575.5 L 837.5,571.0 L 839.5,574.0 Z M 256.0,681.5 L 251.5,680.0 L 256.0,680.5 Z M 12.0,777.5 L 12.5,773.0 L 12.5,776.0 Z"/>
  <path fill="#CC0000" d="M 628.0,786.5 L 622.0,786.5 L 616.0,786.5 L 610.0,786.5 L 604.0,786.5 L 598.0,786.5 L 592.0,786.5 L 586.0,786.5 L 580.0,786.5 L 579.0,784.5 L 582.0,781.5 L 584.5,778.0 L 584.5,774.0 L 583.5,769.0 L 581.5,765.0 L 580.0,760.5 L 578.5,756.0 L 576.5,752.0 L 575.5,747.0 L 573.5,743.0 L 572.0,738.5 L 570.5,734.0 L 568.5,730.0 L 567.0,725.5 L 565.5,721.0 L 564.0,716.5 L 562.5,712.0 L 560.5,708.0 L 559.0,703.5 L 557.5,699.0 L 555.5,695.0 L 554.5,690.0 L 552.5,686.0 L 550.5,682.0 L 549.5,677.0 L 547.5,673.0 L 546.0,668.5 L 544.5,664.0 L 542.5,660.0 L 541.0,655.5 L 539.5,651.0 L 537.5,647.0 L 536.5,642.0 L 534.5,638.0 L 533.0,633.5 L 531.5,629.0 L 529.5,625.0 L 528.0,620.5 L 526.5,616.0 L 524.5,612.0 L 523.0,607.5 L 521.5,603.0 L 520.0,598.5 L 518.5,594.0 L 516.5,590.0 L 515.0,585.5 L 513.5,581.0 L 511.5,577.0 L 510.5,572.0 L 508.5,568.0 L 507.0,563.5 L 505.5,559.0 L 503.5,555.0 L 502.0,550.5 L 500.5,546.0 L 498.5,542.0 L 497.5,537.0 L 495.5,533.0 L 494.0,528.5 L 492.5,524.0 L 490.5,520.0 L 489.5,515.0 L 487.5,511.0 L 482.0,510.5 L 476.0,510.5 L 470.0,510.5 L 464.0,510.5 L 458.0,510.5 L 452.0,510.5 L 446.0,510.5 L 440.0,510.5 L 434.0,510.5 L 428.0,510.5 L 423.5,512.0 L 420.5,515.0 L 417.5,518.0 L 414.5,521.0 L 411.5,524.0 L 408.0,526.5 L 405.5,530.0 L 402.0,532.5 L 399.0,535.5 L 396.5,539.0 L 393.0,541.5 L 390.0,544.5 L 387.5,548.0 L 385.0,551.5 L 383.0,555.5 L 381.0,559.5 L 379.5,564.0 L 377.5,568.0 L 375.5,572.0 L 373.5,576.0 L 371.5,580.0 L 369.5,584.0 L 367.5,588.0 L 365.5,592.0 L 363.5,596.0 L 361.5,600.0 L 359.5,604.0 L 357.5,608.0 L 355.5,612.0 L 353.5,616.0 L 351.5,620.0 L 349.5,624.0 L 347.5,628.0 L 345.5,632.0 L 343.5,636.0 L 341.5,640.0 L 339.0,643.5 L 333.0,643.5 L 327.0,643.5 L 321.0,643.5 L 315.0,643.5 L 309.0,643.5 L 303.0,643.5 L 297.0,643.5 L 291.0,643.5 L 285.0,643.5 L 279.0,643.5 L 273.0,643.5 L 267.0,643.5 L 261.0,643.5 L 255.0,643.5 L 250.5,645.0 L 249.0,649.5 L 247.0,653.5 L 245.0,657.5 L 243.0,661.5 L 241.0,665.5 L 239.0,669.5 L 237.0,673.5 L 232.5,672.0 L 228.0,670.5 L 224.0,668.5 L 220.0,666.5 L 215.5,665.0 L 211.0,663.5 L 206.0,664.5 L 203.0,667.5 L 199.5,670.0 L 196.5,673.0 L 193.5,676.0 L 190.5,679.0 L 187.5,682.0 L 184.0,684.5 L 181.0,687.5 L 178.0,690.5 L 175.0,693.5 L 172.0,696.5 L 169.5,700.0 L 168.5,705.0 L 167.0,709.5 L 165.0,713.5 L 161.0,715.5 L 157.0,717.5 L 152.0,718.5 L 146.0,718.5 L 140.0,718.5 L 135.5,717.0 L 131.5,715.0 L 128.0,712.5 L 124.5,710.0 L 121.5,707.0 L 119.0,703.5 L 116.5,700.0 L 114.5,696.0 L 112.5,692.0 L 111.0,687.5 L 109.5,683.0 L 108.5,678.0 L 107.5,673.0 L 106.5,668.0 L 106.5,662.0 L 105.5,657.0 L 105.5,651.0 L 105.5,645.0 L 105.5,639.0 L 105.5,633.0 L 106.5,628.0 L 106.5,622.0 L 107.5,617.0 L 108.5,612.0 L 109.5,607.0 L 111.0,602.5 L 113.5,599.0 L 119.0,598.5 L 124.0,597.5 L 129.0,598.5 L 134.5,599.0 L 139.0,600.5 L 143.5,602.0 L 147.0,604.5 L 150.5,607.0 L 153.5,610.0 L 156.0,613.5 L 158.5,617.0 L 160.5,621.0 L 162.5,625.0 L 164.0,629.5 L 165.5,634.0 L 168.0,637.5 L 172.5,636.0 L 177.0,634.5 L 182.0,633.5 L 187.0,632.5 L 191.0,630.5 L 196.0,629.5 L 201.0,628.5 L 205.0,626.5 L 210.0,625.5 L 215.0,624.5 L 220.0,623.5 L 225.0,622.5 L 228.5,620.0 L 232.0,617.5 L 235.0,614.5 L 238.0,611.5 L 241.0,608.5 L 244.5,606.0 L 247.5,603.0 L 250.5,600.0 L 253.5,597.0 L 256.5,594.0 L 260.0,591.5 L 262.5,588.0 L 261.5,583.0 L 260.5,578.0 L 258.5,574.0 L 257.0,569.5 L 255.5,565.0 L 253.5,561.0 L 251.5,557.0 L 249.5,553.0 L 247.0,549.5 L 245.0,545.5 L 242.5,542.0 L 239.5,539.0 L 237.0,535.5 L 234.0,532.5 L 231.0,529.5 L 228.0,526.5 L 224.5,524.0 L 221.0,521.5 L 217.5,519.0 L 213.5,517.0 L 209.5,515.0 L 205.5,513.0 L 201.0,511.5 L 196.5,510.0 L 192.0,508.5 L 187.0,507.5 L 182.0,506.5 L 177.0,505.5 L 171.0,505.5 L 166.0,504.5 L 160.0,504.5 L 154.0,504.5 L 148.0,504.5 L 143.0,505.5 L 137.0,505.5 L 132.0,506.5 L 133.0,502.5 L 134.5,498.0 L 136.5,494.0 L 138.0,489.5 L 139.5,485.0 L 141.5,481.0 L 143.0,476.5 L 144.5,472.0 L 146.5,468.0 L 148.0,463.5 L 149.5,459.0 L 151.5,455.0 L 153.5,451.0 L 155.0,446.5 L 156.5,442.0 L 158.5,438.0 L 159.5,433.0 L 161.5,429.0 L 163.5,425.0 L 165.0,420.5 L 166.5,416.0 L 168.5,412.0 L 170.5,408.0 L 172.0,403.5 L 173.5,399.0 L 175.5,395.0 L 177.0,390.5 L 178.5,386.0 L 180.5,382.0 L 182.0,377.5 L 183.5,373.0 L 185.5,369.0 L 187.0,364.5 L 188.5,360.0 L 190.5,356.0 L 192.5,352.0 L 194.0,347.5 L 195.5,343.0 L 197.5,339.0 L 199.0,334.5 L 200.5,330.0 L 202.5,326.0 L 204.0,321.5 L 205.5,317.0 L 207.5,313.0 L 209.5,309.0 L 210.5,304.0 L 212.5,300.0 L 214.5,296.0 L 216.0,291.5 L 217.5,287.0 L 219.5,283.0 L 221.0,278.5 L 222.5,274.0 L 224.5,270.0 L 226.5,266.0 L 228.0,261.5 L 229.5,257.0 L 231.0,252.5 L 232.5,248.0 L 234.5,244.0 L 236.5,240.0 L 238.0,235.5 L 239.5,231.0 L 241.5,227.0 L 243.0,222.5 L 244.5,218.0 L 246.5,214.0 L 248.0,209.5 L 249.5,205.0 L 251.5,201.0 L 253.0,196.5 L 254.5,192.0 L 256.5,188.0 L 258.5,184.0 L 260.0,179.5 L 261.5,175.0 L 263.5,171.0 L 264.5,166.0 L 266.5,162.0 L 268.5,158.0 L 270.0,153.5 L 271.5,149.0 L 273.5,145.0 L 275.0,140.5 L 276.5,136.0 L 278.5,132.0 L 280.5,128.0 L 282.0,123.5 L 283.5,119.0 L 285.5,115.0 L 287.0,110.5 L 288.5,106.0 L 290.5,102.0 L 292.5,98.0 L 294.0,93.5 L 295.5,89.0 L 297.5,85.0 L 300.0,81.5 L 303.5,79.0 L 307.0,76.5 L 311.0,74.5 L 314.5,72.0 L 318.0,69.5 L 322.0,67.5 L 325.5,65.0 L 329.0,62.5 L 333.0,60.5 L 336.5,58.0 L 340.5,56.0 L 344.0,53.5 L 348.0,51.5 L 351.5,49.0 L 355.0,46.5 L 359.0,44.5 L 362.5,42.0 L 366.0,39.5 L 370.0,37.5 L 374.0,35.5 L 377.5,33.0 L 381.0,30.5 L 385.0,28.5 L 388.5,26.0 L 392.5,24.0 L 396.0,21.5 L 400.0,19.5 L 403.5,17.0 L 407.0,14.5 L 411.0,12.5 L 414.5,10.0 L 418.5,8.0 L 422.0,5.5 L 426.0,3.5 L 429.5,1.0 L 435.0,0.5 L 441.0,0.5 L 447.0,0.5 L 453.0,0.5 L 459.0,0.5 L 465.0,0.5 L 471.0,0.5 L 477.0,0.5 L 483.0,0.5 L 489.0,0.5 L 495.0,0.5 L 501.0,0.5 L 507.0,0.5 L 513.0,0.5 L 519.0,0.5 L 525.0,0.5 L 531.0,0.5 L 537.0,0.5 L 543.0,0.5 L 549.0,0.5 L 555.0,0.5 L 561.0,0.5 L 567.0,0.5 L 573.0,0.5 L 579.0,0.5 L 585.0,0.5 L 591.0,0.5 L 597.0,0.5 L 602.5,1.0 L 608.0,1.5 L 612.5,3.0 L 614.5,7.0 L 616.0,11.5 L 617.5,16.0 L 619.5,20.0 L 621.0,24.5 L 622.5,29.0 L 624.5,33.0 L 626.5,37.0 L 627.5,42.0 L 629.5,46.0 L 631.5,50.0 L 632.5,55.0 L 634.5,59.0 L 636.5,63.0 L 638.0,67.5 L 639.5,72.0 L 641.5,76.0 L 643.0,80.5 L 644.5,85.0 L 646.5,89.0 L 648.0,93.5 L 650.0,97.5 L 651.5,102.0 L 653.0,106.5 L 654.5,111.0 L 656.5,115.0 L 658.5,119.0 L 660.0,123.5 L 661.5,128.0 L 663.5,132.0 L 665.0,136.5 L 666.5,141.0 L 668.5,145.0 L 670.0,149.5 L 671.5,154.0 L 673.5,158.0 L 675.5,162.0 L 677.0,166.5 L 678.5,171.0 L 680.5,175.0 L 682.0,179.5 L 683.5,184.0 L 685.5,188.0 L 687.0,192.5 L 688.5,197.0 L 690.5,201.0 L 692.0,205.5 L 693.5,210.0 L 695.5,214.0 L 697.0,218.5 L 698.5,223.0 L 700.5,227.0 L 702.5,231.0 L 704.0,235.5 L 705.5,240.0 L 707.5,244.0 L 709.0,248.5 L 710.5,253.0 L 712.5,257.0 L 714.0,261.5 L 715.5,266.0 L 717.5,270.0 L 719.0,274.5 L 720.5,279.0 L 722.5,283.0 L 724.5,287.0 L 726.0,291.5 L 727.5,296.0 L 729.5,300.0 L 731.0,304.5 L 732.5,309.0 L 734.5,313.0 L 736.0,317.5 L 737.5,322.0 L 739.5,326.0 L 741.0,330.5 L 742.5,335.0 L 744.5,339.0 L 746.5,343.0 L 747.5,348.0 L 749.5,352.0 L 751.5,356.0 L 753.0,360.5 L 754.5,365.0 L 756.5,369.0 L 758.0,373.5 L 759.5,378.0 L 761.5,382.0 L 763.0,386.5 L 764.5,391.0 L 766.5,395.0 L 768.5,399.0 L 770.0,403.5 L 771.5,408.0 L 773.5,412.0 L 775.0,416.5 L 776.5,421.0 L 778.5,425.0 L 780.0,429.5 L 781.5,434.0 L 783.5,438.0 L 785.0,442.5 L 786.5,447.0 L 788.5,451.0 L 790.5,455.0 L 792.0,459.5 L 793.5,464.0 L 795.5,468.0 L 797.0,472.5 L 798.5,477.0 L 800.5,481.0 L 802.5,485.0 L 804.0,489.5 L 805.5,494.0 L 807.5,498.0 L 808.5,503.0 L 810.5,507.0 L 810.0,510.5 L 804.0,510.5 L 802.5,506.0 L 800.5,502.0 L 799.0,497.5 L 797.5,493.0 L 795.5,489.0 L 794.0,484.5 L 792.0,480.5 L 790.5,476.0 L 788.5,472.0 L 787.0,467.5 L 785.5,463.0 L 783.5,459.0 L 782.0,454.5 L 780.5,450.0 L 778.5,446.0 L 776.5,442.0 L 775.0,437.5 L 773.5,433.0 L 771.5,429.0 L 770.0,424.5 L 768.5,420.0 L 766.5,416.0 L 765.0,411.5 L 763.5,407.0 L 761.5,403.0 L 760.0,398.5 L 758.5,394.0 L 756.5,390.0 L 754.5,386.0 L 753.5,381.0 L 751.5,377.0 L 749.5,373.0 L 748.0,368.5 L 746.5,364.0 L 744.5,360.0 L 743.0,355.5 L 741.5,351.0 L 739.5,347.0 L 738.0,342.5 L 736.5,338.0 L 734.5,334.0 L 733.0,329.5 L 731.5,325.0 L 729.5,321.0 L 728.0,316.5 L 726.0,312.5 L 724.5,308.0 L 722.5,304.0 L 721.0,299.5 L 719.5,295.0 L 717.5,291.0 L 716.0,286.5 L 714.5,282.0 L 712.5,278.0 L 711.0,273.5 L 709.5,269.0 L 707.5,265.0 L 705.5,261.0 L 704.5,256.0 L 702.5,252.0 L 700.5,248.0 L 699.0,243.5 L 697.5,239.0 L 695.5,235.0 L 694.0,230.5 L 692.5,226.0 L 690.5,222.0 L 688.5,218.0 L 687.0,213.5 L 685.5,209.0 L 683.5,205.0 L 682.5,200.0 L 680.5,196.0 L 678.5,192.0 L 677.0,187.5 L 675.5,183.0 L 673.5,179.0 L 672.0,174.5 L 670.5,170.0 L 668.5,166.0 L 667.0,161.5 L 665.5,157.0 L 663.5,153.0 L 661.5,149.0 L 660.0,144.5 L 658.5,140.0 L 656.5,136.0 L 655.0,131.5 L 653.5,127.0 L 651.5,123.0 L 650.0,118.5 L 648.5,114.0 L 646.5,110.0 L 645.0,105.5 L 643.5,101.0 L 641.5,97.0 L 639.5,93.0 L 638.0,88.5 L 636.5,84.0 L 634.5,80.0 L 633.0,75.5 L 631.5,71.0 L 629.5,67.0 L 628.0,62.5 L 626.5,58.0 L 624.5,54.0 L 623.0,49.5 L 621.5,45.0 L 619.5,41.0 L 618.0,36.5 L 616.0,32.5 L 614.5,28.0 L 612.5,24.0 L 611.0,19.5 L 609.0,15.5 L 607.0,11.5 L 603.0,13.5 L 599.0,15.5 L 595.0,17.5 L 591.5,20.0 L 588.0,22.5 L 584.0,24.5 L 580.0,26.5 L 576.5,29.0 L 573.0,31.5 L 569.0,33.5 L 565.0,35.5 L 561.5,38.0 L 558.0,40.5 L 554.0,42.5 L 550.0,44.5 L 546.5,47.0 L 542.5,49.0 L 539.0,51.5 L 535.0,53.5 L 531.5,56.0 L 528.0,58.5 L 524.0,60.5 L 520.0,62.5 L 516.5,65.0 L 513.0,67.5 L 509.0,69.5 L 505.0,71.5 L 501.5,74.0 L 498.0,76.5 L 494.0,78.5 L 490.0,80.5 L 486.5,83.0 L 483.0,85.5 L 479.0,87.5 L 479.5,92.0 L 481.5,96.0 L 483.5,100.0 L 485.0,104.5 L 486.5,109.0 L 488.5,113.0 L 490.0,117.5 L 491.5,122.0 L 493.5,126.0 L 495.0,130.5 L 496.5,135.0 L 498.5,139.0 L 500.5,143.0 L 501.5,148.0 L 503.5,152.0 L 505.5,156.0 L 507.0,160.5 L 508.5,165.0 L 510.5,169.0 L 512.0,173.5 L 513.5,178.0 L 515.5,182.0 L 517.0,186.5 L 518.5,191.0 L 520.5,195.0 L 522.0,199.5 L 523.5,204.0 L 525.5,208.0 L 527.0,212.5 L 528.5,217.0 L 530.5,221.0 L 532.5,225.0 L 534.0,229.5 L 535.5,234.0 L 537.5,238.0 L 539.0,242.5 L 540.5,247.0 L 542.5,251.0 L 544.0,255.5 L 545.5,260.0 L 547.5,264.0 L 549.0,268.5 L 550.5,273.0 L 552.5,277.0 L 554.5,281.0 L 555.5,286.0 L 557.5,290.0 L 559.0,294.5 L 560.5,299.0 L 562.5,303.0 L 564.5,307.0 L 566.0,311.5 L 567.5,316.0 L 569.5,320.0 L 571.0,324.5 L 572.5,329.0 L 574.5,333.0 L 576.0,337.5 L 577.5,342.0 L 579.5,346.0 L 581.0,350.5 L 582.5,355.0 L 584.5,359.0 L 586.5,363.0 L 587.5,368.0 L 589.5,372.0 L 591.0,376.5 L 592.5,381.0 L 594.5,385.0 L 596.5,389.0 L 597.5,394.0 L 599.5,398.0 L 601.5,402.0 L 603.0,406.5 L 604.5,411.0 L 606.5,415.0 L 607.5,420.0 L 609.5,424.0 L 611.5,428.0 L 613.0,432.5 L 614.5,437.0 L 616.5,441.0 L 618.0,445.5 L 619.5,450.0 L 621.5,454.0 L 623.0,458.5 L 624.5,463.0 L 626.5,467.0 L 627.5,472.0 L 629.5,476.0 L 631.0,480.5 L 632.5,485.0 L 634.5,489.0 L 636.5,493.0 L 637.5,498.0 L 639.5,502.0 L 641.0,506.5 L 642.0,510.5 L 636.0,510.5 L 630.0,510.5 L 624.0,510.5 L 618.0,510.5 L 612.0,510.5 L 606.0,510.5 L 600.0,510.5 L 594.0,510.5 L 588.0,510.5 L 583.5,512.0 L 580.5,515.0 L 577.5,518.0 L 574.5,521.0 L 571.5,524.0 L 568.5,527.0 L 565.5,530.0 L 562.5,533.0 L 559.5,536.0 L 556.5,539.0 L 553.5,542.0 L 550.5,545.0 L 547.5,548.0 L 547.5,552.0 L 549.0,556.5 L 550.5,561.0 L 552.5,565.0 L 553.5,570.0 L 555.5,574.0 L 556.5,579.0 L 558.5,583.0 L 560.0,587.5 L 561.5,592.0 L 563.0,596.5 L 564.5,601.0 L 566.0,605.5 L 567.5,610.0 L 569.0,614.5 L 570.5,619.0 L 572.5,623.0 L 573.5,628.0 L 575.5,632.0 L 576.5,637.0 L 578.5,641.0 L 580.0,645.5 L 581.5,650.0 L 583.0,654.5 L 584.5,659.0 L 586.5,663.0 L 587.5,668.0 L 589.5,672.0 L 590.5,677.0 L 592.5,681.0 L 593.5,686.0 L 595.5,690.0 L 597.0,694.5 L 598.5,699.0 L 600.0,703.5 L 601.5,708.0 L 603.0,712.5 L 604.5,717.0 L 606.5,721.0 L 607.5,726.0 L 609.5,730.0 L 610.5,735.0 L 612.5,739.0 L 613.5,744.0 L 615.5,748.0 L 617.0,752.5 L 618.5,757.0 L 620.0,761.5 L 621.5,766.0 L 623.5,770.0 L 624.5,775.0 L 626.5,779.0 L 627.5,784.0 Z M 763.0,786.5 L 757.0,786.5 L 751.0,786.5 L 745.0,786.5 L 740.5,785.0 L 743.5,782.0 L 746.0,778.5 L 748.5,775.0 L 750.5,771.0 L 752.5,767.0 L 754.5,768.0 L 756.5,772.0 L 758.5,776.0 L 761.0,779.5 L 765.0,777.5 L 769.0,775.5 L 772.5,773.0 L 776.5,771.0 L 780.5,769.0 L 784.5,767.0 L 788.5,765.0 L 792.0,762.5 L 796.0,760.5 L 800.0,758.5 L 804.0,756.5 L 808.0,754.5 L 812.0,752.5 L 816.0,750.5 L 819.5,748.0 L 823.5,746.0 L 827.5,744.0 L 831.5,742.0 L 835.0,739.5 L 839.0,737.5 L 843.0,735.5 L 847.0,733.5 L 851.0,731.5 L 855.0,729.5 L 858.5,727.0 L 862.5,725.0 L 866.5,723.0 L 870.5,721.0 L 874.0,718.5 L 878.0,716.5 L 882.0,714.5 L 884.5,711.0 L 882.5,707.0 L 881.0,702.5 L 879.5,698.0 L 877.5,694.0 L 876.0,689.5 L 874.5,685.0 L 872.5,681.0 L 871.0,676.5 L 869.5,672.0 L 867.5,668.0 L 866.0,663.5 L 864.5,659.0 L 862.5,655.0 L 860.5,651.0 L 859.0,646.5 L 857.5,642.0 L 855.5,638.0 L 854.0,633.5 L 852.5,629.0 L 850.5,625.0 L 849.0,620.5 L 847.0,616.5 L 845.5,612.0 L 843.5,608.0 L 842.5,603.0 L 840.5,599.0 L 838.5,595.0 L 837.0,590.5 L 835.5,586.0 L 833.5,582.0 L 832.0,577.5 L 830.5,573.0 L 828.5,569.0 L 827.5,564.0 L 828.5,559.0 L 831.0,555.5 L 832.5,560.0 L 834.5,564.0 L 836.5,568.0 L 838.0,572.5 L 839.5,577.0 L 841.5,581.0 L 843.0,585.5 L 844.5,590.0 L 846.5,594.0 L 848.0,598.5 L 849.5,603.0 L 851.5,607.0 L 853.5,611.0 L 855.0,615.5 L 856.5,620.0 L 858.5,624.0 L 860.0,628.5 L 861.5,633.0 L 863.5,637.0 L 865.5,641.0 L 866.5,646.0 L 868.5,650.0 L 870.5,654.0 L 872.0,658.5 L 873.5,663.0 L 875.5,667.0 L 877.0,671.5 L 878.5,676.0 L 880.5,680.0 L 882.5,684.0 L 884.0,688.5 L 885.5,693.0 L 887.5,697.0 L 889.0,701.5 L 890.5,706.0 L 892.5,710.0 L 893.5,715.0 L 891.0,718.5 L 887.0,720.5 L 883.0,722.5 L 879.0,724.5 L 875.5,727.0 L 871.5,729.0 L 867.5,731.0 L 863.5,733.0 L 860.0,735.5 L 856.0,737.5 L 852.0,739.5 L 848.0,741.5 L 844.0,743.5 L 840.0,745.5 L 836.5,748.0 L 832.5,750.0 L 828.5,752.0 L 824.5,754.0 L 821.0,756.5 L 817.0,758.5 L 813.0,760.5 L 809.0,762.5 L 805.0,764.5 L 801.0,766.5 L 797.0,768.5 L 793.0,770.5 L 789.5,773.0 L 785.5,775.0 L 781.5,777.0 L 777.5,779.0 L 774.0,781.5 L 770.0,783.5 L 766.0,785.5 Z M 473.5,81.0 L 477.0,78.5 L 481.0,76.5 L 485.0,74.5 L 489.0,72.5 L 492.5,70.0 L 496.0,67.5 L 500.0,65.5 L 503.5,63.0 L 507.5,61.0 L 511.0,58.5 L 515.0,56.5 L 518.5,54.0 L 522.5,52.0 L 526.0,49.5 L 530.0,47.5 L 533.5,45.0 L 537.5,43.0 L 541.0,40.5 L 545.0,38.5 L 548.5,36.0 L 552.5,34.0 L 556.0,31.5 L 560.0,29.5 L 564.0,27.5 L 567.5,25.0 L 571.0,22.5 L 575.0,20.5 L 579.0,18.5 L 582.5,16.0 L 586.5,14.0 L 590.0,11.5 L 591.0,9.5 L 586.0,8.5 L 580.0,8.5 L 574.0,8.5 L 568.0,8.5 L 562.0,8.5 L 556.0,8.5 L 550.0,8.5 L 544.0,8.5 L 538.0,8.5 L 532.0,8.5 L 526.0,8.5 L 520.0,8.5 L 514.0,8.5 L 508.0,8.5 L 502.0,8.5 L 496.0,8.5 L 490.0,8.5 L 484.0,8.5 L 478.0,8.5 L 472.0,8.5 L 466.0,8.5 L 460.0,8.5 L 454.0,8.5 L 448.0,8.5 L 442.0,8.5 L 436.0,8.5 L 431.0,9.5 L 427.5,12.0 L 423.5,14.0 L 420.0,16.5 L 416.0,18.5 L 412.5,21.0 L 409.0,23.5 L 405.0,25.5 L 401.0,27.5 L 397.5,30.0 L 394.0,32.5 L 390.0,34.5 L 386.5,37.0 L 382.5,39.0 L 379.0,41.5 L 375.0,43.5 L 371.5,46.0 L 367.5,48.0 L 364.0,50.5 L 360.0,52.5 L 357.0,55.5 L 353.0,57.5 L 349.0,59.5 L 345.5,62.0 L 342.0,64.5 L 338.0,66.5 L 334.0,68.5 L 330.5,71.0 L 327.0,73.5 L 323.0,75.5 L 319.5,78.0 L 316.0,80.5 L 318.0,81.5 L 324.0,81.5 L 330.0,81.5 L 336.0,81.5 L 342.0,81.5 L 348.0,81.5 L 354.0,81.5 L 360.0,81.5 L 366.0,81.5 L 372.0,81.5 L 378.0,81.5 L 384.0,81.5 L 390.0,81.5 L 396.0,81.5 L 402.0,81.5 L 408.0,81.5 L 414.0,81.5 L 420.0,81.5 L 426.0,81.5 L 432.0,81.5 L 438.0,81.5 L 444.0,81.5 L 450.0,81.5 L 456.0,81.5 L 462.0,81.5 L 468.0,81.5 L 473.5,81.0 Z M 313.5,490.0 L 317.0,487.5 L 321.0,485.5 L 325.0,483.5 L 328.5,481.0 L 332.0,478.5 L 336.0,476.5 L 340.0,474.5 L 343.5,472.0 L 347.5,470.0 L 351.0,467.5 L 355.0,465.5 L 359.0,463.5 L 362.5,461.0 L 366.0,458.5 L 370.0,456.5 L 374.0,454.5 L 377.5,452.0 L 381.5,450.0 L 385.0,447.5 L 389.0,445.5 L 392.5,443.0 L 396.5,441.0 L 400.0,438.5 L 404.0,436.5 L 408.0,434.5 L 411.5,432.0 L 415.5,430.0 L 419.0,427.5 L 423.0,425.5 L 425.0,422.5 L 423.5,418.0 L 421.5,414.0 L 420.0,409.5 L 418.5,405.0 L 416.5,401.0 L 415.0,396.5 L 413.5,392.0 L 412.0,387.5 L 410.5,383.0 L 408.5,379.0 L 407.0,374.5 L 405.5,370.0 L 403.5,366.0 L 402.0,361.5 L 400.5,357.0 L 398.5,353.0 L 397.5,348.0 L 395.5,344.0 L 394.0,339.5 L 392.5,335.0 L 390.5,331.0 L 389.0,326.5 L 387.5,322.0 L 386.0,317.5 L 384.5,313.0 L 382.0,311.5 L 380.5,316.0 L 378.5,320.0 L 377.0,324.5 L 375.5,329.0 L 373.5,333.0 L 371.5,337.0 L 370.5,342.0 L 368.5,346.0 L 366.5,350.0 L 365.5,355.0 L 363.5,359.0 L 361.5,363.0 L 360.0,367.5 L 358.5,372.0 L 356.5,376.0 L 355.0,380.5 L 353.5,385.0 L 351.5,389.0 L 350.0,393.5 L 348.5,398.0 L 346.5,402.0 L 345.0,406.5 L 343.5,411.0 L 341.5,415.0 L 340.0,419.5 L 338.5,424.0 L 336.5,428.0 L 335.0,432.5 L 333.5,437.0 L 331.5,441.0 L 330.0,445.5 L 328.0,449.5 L 326.5,454.0 L 324.5,458.0 L 323.0,462.5 L 321.5,467.0 L 319.5,471.0 L 318.0,475.5 L 316.5,480.0 L 314.5,484.0 L 313.0,488.5 Z M 452.5,496.0 L 451.0,491.5 L 449.5,487.0 L 448.0,482.5 L 446.5,478.0 L 444.5,474.0 L 443.0,469.5 L 441.5,465.0 L 439.5,461.0 L 438.0,456.5 L 436.5,452.0 L 434.5,448.0 L 433.5,443.0 L 431.5,439.0 L 430.0,434.5 L 427.0,433.5 L 423.0,435.5 L 419.0,437.5 L 415.5,440.0 L 412.0,442.5 L 408.0,444.5 L 404.0,446.5 L 400.0,448.5 L 396.5,451.0 L 393.0,453.5 L 389.0,455.5 L 385.0,457.5 L 381.5,460.0 L 378.0,462.5 L 374.0,464.5 L 370.0,466.5 L 366.5,469.0 L 362.5,471.0 L 359.0,473.5 L 355.0,475.5 L 351.0,477.5 L 347.5,480.0 L 343.5,482.0 L 340.0,484.5 L 336.0,486.5 L 332.5,489.0 L 328.5,491.0 L 325.0,493.5 L 321.5,496.0 L 327.0,496.5 L 333.0,496.5 L 339.0,496.5 L 345.0,496.5 L 351.0,496.5 L 357.0,496.5 L 363.0,496.5 L 369.0,496.5 L 375.0,496.5 L 381.0,496.5 L 387.0,496.5 L 393.0,496.5 L 399.0,496.5 L 405.0,496.5 L 411.0,496.5 L 417.0,496.5 L 423.0,496.5 L 429.0,496.5 L 435.0,496.5 L 441.0,496.5 L 447.0,496.5 L 452.5,496.0 Z M 38.0,786.5 L 32.0,786.5 L 26.0,786.5 L 20.0,786.5 L 14.0,786.5 L 9.5,785.0 L 10.5,780.0 L 12.5,776.0 L 14.5,772.0 L 16.5,768.0 L 18.5,764.0 L 21.0,764.5 L 23.0,768.5 L 25.5,772.0 L 28.5,775.0 L 31.0,778.5 L 34.0,781.5 L 37.0,784.5 Z"/>
</svg>